<?xml version="1.0" encoding="UTF-8"?>
<svg id="Layer_1" data-name="Layer 1" xmlns="http://www.w3.org/2000/svg" viewBox="0 0 20 20">
  <defs>
    <style>
      .cls-1 {
        fill: #ff8023;
        stroke: #000;
        stroke-miterlimit: 10;
        stroke-width: .5px;
      }
    </style>
  </defs>
  <path class="cls-1" d="M13.8912,3.1845c-.1096-.0306-.3706-.2379-.1678-.3953.5385-.418.4193-1.2305-.029-1.3518-.9666-.2615-3.967-.2945-3.9698-.2945-1.0823,0-2.8369.0212-3.8001.2945-.4275.1213-.5868.7834.0051,1.3518.1852.1778-.0582.3647-.1678.3953C2.7907,4.0149.9071,5.9215.9071,9.3588c0,2.0549.938,4.4265,2.1888,6.126,1.2363,1.6799,2.4152,3.032,4.2661,3.6547.2163.0728,1.2277.2283,2.3837.2581.0215.0005.0439.0009.0662.0012v.0005c.0048,0,.0096-.0002.0144-.0002.0048,0,.0096.0002.0144.0002v-.0005c.0222-.0004.0447-.0007.0662-.0012,1.1561-.0297,2.1674-.1852,2.3837-.2581,1.851-.6227,3.0298-1.9749,4.2661-3.6547,1.2509-1.6995,2.1888-4.071,2.1888-6.126,0-3.4373-1.8835-5.3439-4.8545-6.1743Z"/>
</svg>