<?xml version="1.0" encoding="UTF-8"?>
<svg id="Layer_1" data-name="Layer 1" xmlns="http://www.w3.org/2000/svg" viewBox="0 0 20 20">
  <defs>
    <style>
      .cls-1 {
        fill: #99a57a;
        stroke: #000;
        stroke-miterlimit: 10;
        stroke-width: .5px;
      }
    </style>
  </defs>
  <path class="cls-1" d="M19.3297,18.053s-.7415-.8435-1.7803-1.9897c-.7179-.7922-1.8162-1.7981-1.7827-2.4152.0382-.7023.1228-1.5857-.2679-2.7217s-.8955-1.9522-1.9116-2.8825c-.6944-.6358-2.601-2.1953-4.6534-3.5477C6.202,2.6961,3.2217,1.0819,2.5944.7453c-.9438-.5064-1.7258-.1978-1.9278-.1006l-.0049.0049c-.125.2072-.4317,1.0303.075,1.9807.3367.6317,1.9515,3.633,3.7489,6.3824,1.3504,2.0655,2.905,3.9826,3.5383,4.6804.9267,1.0212,1.7376,1.5265,2.8643,1.9147,1.1268.3883,2.0008.2979,2.6958.2553.6108-.0374,1.6127,1.0663,2.401,1.7871,1.1405,1.0428,1.9798,1.7871,1.9798,1.7871,0,0,.2059.0814.7796-.5732.6704-.5994.5853-.8112.5853-.8112Z"/>
</svg>